<svg xmlns="http://www.w3.org/2000/svg" xmlns:xlink="http://www.w3.org/1999/xlink" width="200" zoomAndPan="magnify" viewBox="0 0 150 149.999998" height="200" preserveAspectRatio="xMidYMid meet" version="1.0"><defs><clipPath id="0b6850ccdc"><path d="M 20.175781 15 L 129.675781 15 L 129.675781 125 L 20.175781 125 Z M 20.175781 15 " clip-rule="nonzero"/></clipPath></defs><g clip-path="url(#0b6850ccdc)"><path fill="#eec124" d="M 75.484375 15.296875 C 45.441406 14.992188 20.839844 39.125 20.53125 69.207031 C 20.222656 99.285156 44.328125 123.921875 74.371094 124.226562 C 104.414062 124.535156 129.015625 100.398438 129.324219 70.320312 C 129.632812 40.238281 105.527344 15.601562 75.484375 15.292969 " fill-opacity="1" fill-rule="nonzero"/></g><path fill="#ffffff" d="M 106.105469 124.703125 C 103.394531 126.6875 100.488281 128.417969 97.421875 129.859375 C 96.957031 130.082031 96.488281 130.292969 96.015625 130.5 C 89.359375 133.40625 81.996094 134.984375 74.261719 134.90625 C 66.527344 134.828125 59.203125 133.097656 52.605469 130.054688 C 52.136719 129.839844 51.667969 129.617188 51.210938 129.386719 C 48.175781 127.878906 45.304688 126.089844 42.636719 124.054688 C 43.214844 113.527344 48.898438 104.390625 57.226562 99.042969 C 62.257812 95.808594 68.257812 93.964844 74.679688 94.027344 C 75.660156 94.035156 76.628906 94.09375 77.585938 94.191406 C 82.898438 94.722656 87.820312 96.570312 92.027344 99.398438 C 95.8125 101.9375 99.015625 105.269531 101.410156 109.152344 C 104.21875 113.707031 105.910156 119.019531 106.105469 124.703125 " fill-opacity="1" fill-rule="nonzero"/><path fill="#ba5c21" d="M 92.027344 99.398438 C 91.507812 103.066406 89.855469 106.371094 87.433594 108.9375 C 84.191406 112.382812 79.578125 114.515625 74.472656 114.464844 C 66.292969 114.382812 59.480469 108.710938 57.605469 101.109375 C 57.441406 100.4375 57.3125 99.746094 57.226562 99.042969 C 62.257812 95.808594 68.253906 93.964844 74.679688 94.03125 C 75.660156 94.039062 76.628906 94.09375 77.585938 94.191406 C 77.75 94.207031 77.917969 94.222656 78.082031 94.246094 C 78.183594 94.253906 78.285156 94.265625 78.386719 94.285156 C 78.5 94.292969 78.613281 94.3125 78.726562 94.328125 C 78.792969 94.335938 78.867188 94.34375 78.9375 94.355469 C 79.035156 94.371094 79.140625 94.386719 79.246094 94.402344 C 79.324219 94.414062 79.402344 94.429688 79.488281 94.4375 C 79.554688 94.449219 79.625 94.460938 79.695312 94.476562 C 79.8125 94.496094 79.925781 94.515625 80.042969 94.53125 C 80.546875 94.625 81.050781 94.730469 81.542969 94.84375 C 81.65625 94.871094 81.765625 94.898438 81.875 94.921875 C 81.9375 94.9375 82 94.953125 82.0625 94.972656 C 82.179688 95 82.304688 95.027344 82.417969 95.0625 C 82.4375 95.0625 82.457031 95.070312 82.46875 95.074219 C 82.617188 95.113281 82.765625 95.148438 82.914062 95.195312 C 83.070312 95.238281 83.222656 95.28125 83.375 95.328125 C 83.554688 95.378906 83.726562 95.429688 83.902344 95.488281 C 84.039062 95.527344 84.171875 95.574219 84.308594 95.617188 C 84.394531 95.644531 84.480469 95.675781 84.566406 95.707031 C 84.707031 95.753906 84.847656 95.800781 84.988281 95.851562 C 85.160156 95.914062 85.332031 95.972656 85.496094 96.039062 C 85.511719 96.046875 85.519531 96.046875 85.53125 96.050781 C 85.707031 96.113281 85.882812 96.183594 86.054688 96.25 C 86.183594 96.304688 86.308594 96.355469 86.441406 96.410156 C 86.785156 96.550781 87.117188 96.695312 87.449219 96.84375 C 87.59375 96.914062 87.742188 96.976562 87.882812 97.046875 C 88.015625 97.105469 88.144531 97.167969 88.277344 97.234375 C 88.394531 97.292969 88.511719 97.347656 88.632812 97.410156 C 88.742188 97.464844 88.847656 97.523438 88.957031 97.578125 C 89.027344 97.613281 89.09375 97.648438 89.164062 97.683594 C 89.453125 97.835938 89.734375 97.992188 90.007812 98.148438 C 90.105469 98.203125 90.210938 98.265625 90.308594 98.320312 C 90.371094 98.359375 90.433594 98.394531 90.496094 98.425781 L 90.730469 98.570312 C 90.808594 98.617188 90.890625 98.671875 90.96875 98.71875 C 91.019531 98.75 91.070312 98.78125 91.121094 98.8125 C 91.269531 98.902344 91.414062 98.992188 91.558594 99.089844 C 91.71875 99.191406 91.875 99.292969 92.027344 99.398438 " fill-opacity="1" fill-rule="nonzero"/><path fill="#ba5c21" d="M 82.503906 85.382812 L 82.347656 100.621094 C 82.304688 104.472656 79.125 107.597656 75.277344 107.558594 L 73.804688 107.542969 C 69.953125 107.503906 66.839844 104.316406 66.882812 100.464844 L 67.039062 85.226562 C 67.074219 81.375 70.253906 78.257812 74.105469 78.296875 L 75.578125 78.3125 C 79.425781 78.351562 82.542969 81.535156 82.503906 85.382812 " fill-opacity="1" fill-rule="nonzero"/><path fill="#9e392b" d="M 82.503906 85.382812 L 82.421875 93.449219 C 80.105469 94.707031 77.660156 95.425781 75.183594 95.398438 C 72.265625 95.367188 69.488281 94.527344 66.957031 93.082031 L 67.039062 85.226562 C 67.074219 81.375 70.253906 78.257812 74.105469 78.296875 L 75.578125 78.3125 C 79.425781 78.351562 82.542969 81.535156 82.503906 85.382812 " fill-opacity="1" fill-rule="nonzero"/><path fill="#ba5c21" d="M 93.683594 79.625 C 93.683594 79.625 97.320312 78.425781 99.679688 74.410156 C 102.238281 70.042969 100.6875 67.289062 100.195312 66.695312 C 98.847656 65.058594 96.734375 66.078125 96.386719 66.652344 C 96.03125 67.226562 90.925781 76.296875 93.683594 79.625 " fill-opacity="1" fill-rule="nonzero"/><path fill="#9e392b" d="M 97.359375 68.101562 C 97.359375 68.101562 99.652344 68.421875 98.8125 71.648438 C 97.96875 74.878906 95.832031 76.136719 92.929688 77.765625 C 90.027344 79.386719 94.464844 68.730469 97.359375 68.101562 " fill-opacity="1" fill-rule="nonzero"/><path fill="#ba5c21" d="M 56.914062 79.25 C 56.914062 79.25 53.300781 77.976562 51.027344 73.910156 C 48.554688 69.492188 50.164062 66.773438 50.667969 66.1875 C 52.046875 64.582031 54.140625 65.644531 54.476562 66.226562 C 54.816406 66.804688 59.742188 75.976562 56.914062 79.25 " fill-opacity="1" fill-rule="nonzero"/><path fill="#9e392b" d="M 53.476562 67.65625 C 53.476562 67.65625 51.175781 67.925781 51.953125 71.171875 C 52.726562 74.414062 54.839844 75.71875 57.707031 77.402344 C 60.578125 79.085938 56.355469 68.339844 53.476562 67.65625 " fill-opacity="1" fill-rule="nonzero"/><path fill="#351f16" d="M 53.835938 39.859375 C 53.992188 42.371094 53.597656 65.519531 53.597656 65.519531 L 97.378906 65.964844 C 97.378906 65.964844 99.898438 45.878906 97.640625 40.480469 C 95.382812 35.082031 93.246094 40.261719 93.246094 40.261719 C 93.246094 40.261719 90.226562 35.519531 82.980469 38.59375 C 82.980469 38.59375 81.867188 35.578125 77.183594 36.511719 C 77.183594 36.511719 71.695312 31.023438 68.359375 35.496094 C 68.359375 35.496094 63.375 31.628906 61.257812 35.769531 C 61.257812 35.769531 53.40625 33.089844 53.835938 39.859375 " fill-opacity="1" fill-rule="nonzero"/><path fill="#ba5c21" d="M 97.378906 65.964844 C 97.515625 52.671875 87.824219 41.796875 75.734375 41.675781 C 63.644531 41.550781 53.734375 52.222656 53.597656 65.519531 C 53.464844 78.8125 63.121094 92.808594 75.210938 92.929688 C 86.574219 93.046875 97.246094 79.148438 97.378906 65.964844 " fill-opacity="1" fill-rule="nonzero"/><path fill="#351f16" d="M 97.273438 45.679688 L 78.195312 39.066406 L 76.234375 39.046875 L 75.242188 39.035156 L 73.28125 39.015625 L 54.074219 45.234375 L 53.554688 65.519531 C 54.054688 61.007812 58.109375 49.265625 61.898438 51.210938 C 64.976562 52.792969 72.40625 53.503906 75.089844 53.714844 L 75.089844 53.773438 C 75.089844 53.773438 75.269531 53.769531 75.585938 53.75 C 75.902344 53.773438 76.082031 53.785156 76.082031 53.785156 L 76.085938 53.726562 C 78.773438 53.570312 86.21875 53.011719 89.324219 51.492188 C 93.15625 49.625 96.96875 61.445312 97.378906 65.964844 L 97.273438 45.679688 " fill-opacity="1" fill-rule="nonzero"/></svg>