<svg xmlns="http://www.w3.org/2000/svg" xmlns:xlink="http://www.w3.org/1999/xlink" width="200" zoomAndPan="magnify" viewBox="0 0 150 149.999998" height="200" preserveAspectRatio="xMidYMid meet" version="1.0"><defs><clipPath id="5115292fbc"><path d="M 20.398438 15 L 129.898438 15 L 129.898438 125 L 20.398438 125 Z M 20.398438 15 " clip-rule="nonzero"/></clipPath></defs><g clip-path="url(#5115292fbc)"><path fill="#f2546b" d="M 20.417969 69.664062 C 20.417969 99.820312 44.929688 124.261719 75.167969 124.261719 C 105.40625 124.261719 129.917969 99.820312 129.917969 69.664062 C 129.917969 39.507812 105.40625 15.066406 75.167969 15.066406 C 44.925781 15.066406 20.417969 39.507812 20.417969 69.664062 " fill-opacity="1" fill-rule="nonzero"/></g><path fill="#351f16" d="M 96.671875 71.019531 C 96.671875 71.019531 95.941406 83.882812 98.179688 88.574219 C 98.179688 88.574219 94.464844 91.269531 92.402344 88.574219 L 92.402344 88.054688 C 92.402344 88.054688 88.941406 94.1875 83 91.382812 C 77.0625 88.574219 83 72.40625 83 72.40625 L 90.3125 59.027344 L 96.671875 71.019531 " fill-opacity="1" fill-rule="nonzero"/><path fill="#ffffff" d="M 107.882812 124.410156 C 105.171875 126.425781 102.265625 128.191406 99.195312 129.671875 C 98.726562 129.898438 98.257812 130.113281 97.785156 130.324219 C 91.117188 133.308594 83.722656 134.964844 75.9375 134.964844 C 68.152344 134.964844 60.761719 133.308594 54.089844 130.324219 C 53.621094 130.113281 53.144531 129.898438 52.683594 129.671875 C 49.609375 128.191406 46.703125 126.425781 43.996094 124.410156 C 44.472656 113.855469 50.09375 104.636719 58.421875 99.191406 C 63.453125 95.902344 69.472656 93.988281 75.9375 93.988281 C 76.925781 93.988281 77.902344 94.035156 78.863281 94.121094 C 84.21875 94.605469 89.1875 96.402344 93.453125 99.191406 C 97.285156 101.699219 100.546875 105.003906 102.992188 108.871094 C 105.867188 113.40625 107.625 118.714844 107.882812 124.410156 " fill-opacity="1" fill-rule="nonzero"/><path fill="#fbd5c0" d="M 93.453125 99.191406 C 92.964844 102.875 91.335938 106.199219 88.925781 108.800781 C 85.699219 112.289062 81.078125 114.476562 75.9375 114.476562 C 67.707031 114.476562 60.789062 108.859375 58.828125 101.261719 C 58.652344 100.585938 58.515625 99.894531 58.421875 99.191406 C 63.453125 95.902344 69.472656 93.988281 75.9375 93.988281 C 76.925781 93.988281 77.902344 94.03125 78.863281 94.121094 C 79.03125 94.132812 79.199219 94.152344 79.359375 94.167969 C 79.464844 94.179688 79.570312 94.191406 79.671875 94.203125 C 79.785156 94.214844 79.902344 94.230469 80.011719 94.246094 C 80.082031 94.253906 80.15625 94.261719 80.226562 94.273438 C 80.328125 94.285156 80.429688 94.300781 80.535156 94.316406 C 80.617188 94.324219 80.695312 94.339844 80.78125 94.351562 C 80.851562 94.359375 80.917969 94.371094 80.988281 94.382812 C 81.109375 94.402344 81.222656 94.421875 81.339844 94.441406 C 81.851562 94.527344 82.355469 94.625 82.855469 94.734375 L 83.1875 94.808594 C 83.25 94.828125 83.316406 94.839844 83.378906 94.859375 C 83.5 94.886719 83.621094 94.914062 83.738281 94.945312 C 83.757812 94.949219 83.773438 94.953125 83.789062 94.953125 C 83.9375 94.992188 84.089844 95.03125 84.234375 95.074219 C 84.394531 95.109375 84.550781 95.15625 84.707031 95.203125 C 84.882812 95.25 85.058594 95.300781 85.234375 95.355469 C 85.371094 95.394531 85.507812 95.4375 85.644531 95.484375 C 85.730469 95.511719 85.820312 95.539062 85.90625 95.566406 C 86.046875 95.613281 86.191406 95.660156 86.328125 95.710938 C 86.503906 95.769531 86.675781 95.828125 86.847656 95.890625 C 86.859375 95.898438 86.871094 95.902344 86.882812 95.902344 C 87.058594 95.964844 87.234375 96.03125 87.40625 96.097656 C 87.535156 96.152344 87.667969 96.199219 87.800781 96.253906 C 88.144531 96.390625 88.484375 96.53125 88.820312 96.679688 L 89.257812 96.878906 C 89.390625 96.9375 89.523438 97 89.65625 97.0625 C 89.777344 97.121094 89.894531 97.175781 90.015625 97.234375 C 90.125 97.289062 90.234375 97.34375 90.34375 97.398438 C 90.414062 97.433594 90.484375 97.46875 90.554688 97.507812 C 90.84375 97.652344 91.128906 97.804688 91.40625 97.957031 C 91.507812 98.015625 91.613281 98.074219 91.710938 98.128906 C 91.777344 98.167969 91.839844 98.203125 91.902344 98.238281 L 92.136719 98.375 L 92.378906 98.523438 L 92.535156 98.617188 C 92.683594 98.703125 92.832031 98.792969 92.976562 98.886719 C 93.136719 98.988281 93.296875 99.089844 93.453125 99.191406 " fill-opacity="1" fill-rule="nonzero"/><path fill="#fbd5c0" d="M 83.722656 85.246094 L 83.722656 100.515625 C 83.722656 104.378906 80.554688 107.542969 76.679688 107.542969 L 75.195312 107.542969 C 71.320312 107.542969 68.15625 104.378906 68.15625 100.515625 L 68.15625 85.246094 C 68.15625 81.382812 71.320312 78.226562 75.195312 78.226562 L 76.679688 78.226562 C 80.554688 78.226562 83.722656 81.382812 83.722656 85.246094 " fill-opacity="1" fill-rule="nonzero"/><path fill="#f8a29e" d="M 83.722656 85.246094 L 83.722656 93.328125 C 81.40625 94.609375 78.953125 95.355469 76.460938 95.355469 C 73.523438 95.355469 70.71875 94.542969 68.15625 93.121094 L 68.15625 85.246094 C 68.15625 81.382812 71.320312 78.226562 75.195312 78.226562 L 76.679688 78.226562 C 80.554688 78.226562 83.722656 81.382812 83.722656 85.246094 " fill-opacity="1" fill-rule="nonzero"/><path fill="#fbd5c0" d="M 94.921875 79.355469 C 94.921875 79.355469 98.566406 78.117188 100.894531 74.066406 C 103.429688 69.664062 101.839844 66.921875 101.339844 66.328125 C 99.964844 64.703125 97.851562 65.746094 97.503906 66.328125 C 97.15625 66.90625 92.101562 76.050781 94.921875 79.355469 " fill-opacity="1" fill-rule="nonzero"/><path fill="#f8a29e" d="M 98.496094 67.769531 C 98.496094 67.769531 100.808594 68.066406 99.996094 71.308594 C 99.179688 74.554688 97.042969 75.835938 94.140625 77.496094 C 91.230469 79.15625 95.589844 68.429688 98.496094 67.769531 " fill-opacity="1" fill-rule="nonzero"/><path fill="#fbd5c0" d="M 57.902344 79.355469 C 57.902344 79.355469 54.257812 78.117188 51.929688 74.066406 C 49.398438 69.664062 50.984375 66.921875 51.488281 66.328125 C 52.859375 64.703125 54.976562 65.746094 55.324219 66.328125 C 55.671875 66.90625 60.722656 76.050781 57.902344 79.355469 " fill-opacity="1" fill-rule="nonzero"/><path fill="#f8a29e" d="M 54.328125 67.769531 C 54.328125 67.769531 52.015625 68.066406 52.828125 71.308594 C 53.644531 74.554688 55.78125 75.835938 58.683594 77.496094 C 61.59375 79.15625 57.234375 68.429688 54.328125 67.769531 " fill-opacity="1" fill-rule="nonzero"/><path fill="#fbd5c0" d="M 98.496094 65.628906 C 98.496094 52.300781 88.632812 41.496094 76.460938 41.496094 C 64.292969 41.496094 54.429688 52.300781 54.429688 65.628906 C 54.429688 78.953125 64.292969 92.882812 76.460938 92.882812 C 87.894531 92.882812 98.496094 78.839844 98.496094 65.628906 " fill-opacity="1" fill-rule="nonzero"/><path fill="#351f16" d="M 78.445312 55.898438 C 78.445312 55.898438 82.589844 69.195312 98.179688 67.875 C 98.179688 67.875 100.902344 63.953125 99.980469 55.417969 C 98.941406 45.796875 90.398438 37.703125 76.460938 40.601562 C 76.460938 40.601562 75.1875 47.4375 78.445312 55.898438 " fill-opacity="1" fill-rule="nonzero"/><path fill="#351f16" d="M 79.140625 41.496094 C 79.140625 41.496094 79.71875 38.980469 77.628906 37.007812 C 75.535156 35.039062 47.84375 39.085938 54.429688 65.628906 C 54.429688 65.628906 60.882812 49.753906 77.976562 48.363281 L 79.140625 41.496094 " fill-opacity="1" fill-rule="nonzero"/><path fill="#351f16" d="M 67.328125 47.027344 C 67.328125 47.027344 67.210938 47.140625 67.019531 47.355469 C 65.578125 48.980469 59.753906 56.472656 65.546875 65.988281 C 65.546875 65.988281 71.265625 53.859375 78 51.378906 C 84.738281 48.902344 74.917969 44.84375 74.917969 44.84375 " fill-opacity="1" fill-rule="nonzero"/></svg>