<svg xmlns="http://www.w3.org/2000/svg" xmlns:xlink="http://www.w3.org/1999/xlink" width="200" zoomAndPan="magnify" viewBox="0 0 150 149.999998" height="200" preserveAspectRatio="xMidYMid meet" version="1.0"><defs><clipPath id="3bfad45a69"><path d="M 20.398438 15 L 129.898438 15 L 129.898438 125 L 20.398438 125 Z M 20.398438 15 " clip-rule="nonzero"/></clipPath></defs><g clip-path="url(#3bfad45a69)"><path fill="#7640a3" d="M 129.917969 69.628906 C 129.917969 99.785156 105.40625 124.226562 75.167969 124.226562 C 44.929688 124.226562 20.417969 99.785156 20.417969 69.628906 C 20.417969 39.472656 44.929688 15.03125 75.167969 15.03125 C 102.605469 15.03125 125.328125 35.15625 129.300781 61.414062 C 129.707031 64.09375 129.917969 66.835938 129.917969 69.628906 " fill-opacity="1" fill-rule="nonzero"/></g><path fill="#ffffff" d="M 107.109375 124.375 C 104.402344 126.390625 101.496094 128.160156 98.421875 129.636719 C 97.957031 129.863281 97.484375 130.078125 97.015625 130.289062 C 90.34375 133.273438 82.953125 134.929688 75.167969 134.929688 C 67.382812 134.929688 59.992188 133.273438 53.324219 130.289062 C 52.84375 130.078125 52.375 129.863281 51.910156 129.636719 C 48.839844 128.15625 45.933594 126.390625 43.226562 124.375 C 43.703125 113.820312 49.324219 104.601562 57.652344 99.15625 C 62.683594 95.867188 68.699219 93.953125 75.167969 93.953125 C 76.152344 93.953125 77.128906 94 78.089844 94.085938 C 83.445312 94.570312 88.417969 96.367188 92.683594 99.15625 C 96.515625 101.664062 99.777344 104.96875 102.222656 108.835938 C 105.097656 113.371094 106.847656 118.679688 107.109375 124.375 " fill-opacity="1" fill-rule="nonzero"/><path fill="#fbd5c0" d="M 92.683594 99.15625 C 92.195312 102.839844 90.566406 106.167969 88.15625 108.765625 C 84.929688 112.253906 80.304688 114.441406 75.167969 114.441406 C 66.9375 114.441406 60.019531 108.824219 58.058594 101.226562 C 57.882812 100.550781 57.746094 99.859375 57.652344 99.15625 C 62.683594 95.867188 68.699219 93.953125 75.167969 93.953125 C 76.152344 93.953125 77.128906 93.996094 78.09375 94.085938 C 78.257812 94.101562 78.425781 94.117188 78.589844 94.132812 C 78.695312 94.144531 78.800781 94.15625 78.902344 94.167969 C 79.015625 94.179688 79.132812 94.195312 79.242188 94.210938 C 79.3125 94.21875 79.386719 94.226562 79.457031 94.238281 C 79.554688 94.25 79.660156 94.265625 79.765625 94.28125 C 79.847656 94.289062 79.925781 94.304688 80.007812 94.316406 C 80.078125 94.324219 80.148438 94.335938 80.21875 94.351562 C 80.335938 94.367188 80.453125 94.386719 80.570312 94.40625 C 81.078125 94.492188 81.585938 94.589844 82.082031 94.699219 L 82.417969 94.773438 C 82.480469 94.792969 82.546875 94.804688 82.609375 94.824219 C 82.730469 94.851562 82.851562 94.878906 82.964844 94.910156 C 82.988281 94.914062 83.003906 94.917969 83.019531 94.921875 C 83.167969 94.957031 83.316406 94.996094 83.464844 95.039062 C 83.625 95.078125 83.78125 95.121094 83.933594 95.167969 C 84.113281 95.214844 84.289062 95.269531 84.464844 95.320312 C 84.601562 95.363281 84.738281 95.402344 84.871094 95.449219 C 84.960938 95.476562 85.050781 95.503906 85.132812 95.53125 C 85.277344 95.578125 85.421875 95.625 85.558594 95.675781 C 85.734375 95.734375 85.90625 95.792969 86.074219 95.855469 C 86.089844 95.863281 86.101562 95.867188 86.109375 95.867188 C 86.289062 95.933594 86.460938 95.996094 86.636719 96.0625 C 86.765625 96.117188 86.898438 96.164062 87.03125 96.21875 C 87.375 96.355469 87.714844 96.5 88.046875 96.644531 L 88.488281 96.84375 C 88.621094 96.902344 88.753906 96.964844 88.886719 97.027344 C 89.007812 97.085938 89.125 97.140625 89.246094 97.199219 C 89.355469 97.253906 89.464844 97.308594 89.570312 97.363281 C 89.640625 97.398438 89.714844 97.433594 89.785156 97.472656 C 90.074219 97.617188 90.355469 97.769531 90.636719 97.921875 C 90.738281 97.980469 90.839844 98.039062 90.9375 98.09375 C 91.003906 98.132812 91.066406 98.167969 91.128906 98.203125 L 91.367188 98.339844 L 91.609375 98.488281 L 91.765625 98.582031 C 91.914062 98.667969 92.0625 98.757812 92.207031 98.851562 C 92.367188 98.953125 92.523438 99.054688 92.683594 99.15625 " fill-opacity="1" fill-rule="nonzero"/><path fill="#fbd5c0" d="M 82.953125 85.210938 L 82.953125 100.480469 C 82.953125 104.34375 79.78125 107.507812 75.910156 107.507812 L 74.425781 107.507812 C 70.550781 107.507812 67.386719 104.34375 67.386719 100.480469 L 67.386719 85.210938 C 67.386719 81.347656 70.550781 78.191406 74.425781 78.191406 L 75.910156 78.191406 C 79.78125 78.191406 82.953125 81.347656 82.953125 85.210938 " fill-opacity="1" fill-rule="nonzero"/><path fill="#f8a29e" d="M 82.953125 85.210938 L 82.953125 93.292969 C 80.636719 94.574219 78.183594 95.320312 75.691406 95.320312 C 72.75 95.320312 69.949219 94.507812 67.386719 93.085938 L 67.386719 85.210938 C 67.386719 81.347656 70.550781 78.191406 74.425781 78.191406 L 75.910156 78.191406 C 79.78125 78.191406 82.953125 81.347656 82.953125 85.210938 " fill-opacity="1" fill-rule="nonzero"/><path fill="#fbd5c0" d="M 94.148438 79.320312 C 94.148438 79.320312 97.796875 78.082031 100.125 74.03125 C 102.65625 69.628906 101.066406 66.886719 100.5625 66.292969 C 99.195312 64.667969 97.078125 65.710938 96.730469 66.292969 C 96.378906 66.871094 91.332031 76.015625 94.148438 79.320312 " fill-opacity="1" fill-rule="nonzero"/><path fill="#f8a29e" d="M 97.722656 67.734375 C 97.722656 67.734375 100.039062 68.03125 99.226562 71.273438 C 98.410156 74.519531 96.273438 75.804688 93.363281 77.460938 C 90.460938 79.121094 94.820312 68.394531 97.722656 67.734375 " fill-opacity="1" fill-rule="nonzero"/><path fill="#fbd5c0" d="M 57.132812 79.320312 C 57.132812 79.320312 53.488281 78.082031 51.160156 74.03125 C 48.625 69.628906 50.214844 66.886719 50.714844 66.292969 C 52.085938 64.667969 54.203125 65.710938 54.550781 66.292969 C 54.898438 66.871094 59.949219 76.015625 57.132812 79.320312 " fill-opacity="1" fill-rule="nonzero"/><path fill="#f8a29e" d="M 53.558594 67.734375 C 53.558594 67.734375 51.246094 68.03125 52.058594 71.273438 C 52.871094 74.519531 55.011719 75.804688 57.914062 77.460938 C 60.820312 79.121094 56.464844 68.394531 53.558594 67.734375 " fill-opacity="1" fill-rule="nonzero"/><path fill="#fbd5c0" d="M 97.722656 65.59375 C 97.722656 52.265625 87.859375 41.460938 75.691406 41.460938 C 63.523438 41.460938 53.65625 52.265625 53.65625 65.59375 C 53.65625 78.917969 63.523438 92.847656 75.691406 92.847656 C 87.125 92.847656 97.722656 78.808594 97.722656 65.59375 " fill-opacity="1" fill-rule="nonzero"/><path fill="#23255d" d="M 99.394531 57.425781 C 98.457031 48.746094 92.738281 39.027344 79.863281 38.496094 C 72.953125 36.195312 51.886719 38.203125 51.886719 65.421875 C 51.886719 65.421875 55.789062 68.554688 64.632812 70.210938 C 65.035156 63.96875 68.09375 56.210938 68.09375 56.210938 C 67.195312 61.207031 67.238281 67.621094 67.320312 70.644531 C 74.761719 71.652344 85.113281 71.558594 98.832031 68.347656 C 98.832031 68.347656 100.320312 65.960938 99.394531 57.425781 " fill-opacity="1" fill-rule="nonzero"/></svg>