<svg xmlns="http://www.w3.org/2000/svg" xmlns:xlink="http://www.w3.org/1999/xlink" width="200" zoomAndPan="magnify" viewBox="0 0 150 149.999998" height="200" preserveAspectRatio="xMidYMid meet" version="1.0"><defs><clipPath id="2b2bb66fa8"><path d="M 20.945312 16.199219 L 128.945312 16.199219 L 128.945312 125 L 20.945312 125 Z M 20.945312 16.199219 " clip-rule="nonzero"/></clipPath><clipPath id="5311db9729"><path d="M 43 94 L 107 94 L 107 134.699219 L 43 134.699219 Z M 43 94 " clip-rule="nonzero"/></clipPath></defs><g clip-path="url(#2b2bb66fa8)"><path fill="#eec124" d="M 128.964844 70.179688 C 128.964844 99.960938 104.789062 124.097656 74.964844 124.097656 C 45.136719 124.097656 20.964844 99.960938 20.964844 70.179688 C 20.960938 40.398438 45.136719 16.261719 74.964844 16.261719 C 104.789062 16.257812 128.964844 40.398438 128.964844 70.179688 " fill-opacity="1" fill-rule="nonzero"/></g><path fill="#23255d" d="M 99.160156 110.148438 L 52.007812 110.148438 L 52.007812 65.285156 L 99.160156 65.285156 L 99.160156 110.148438 " fill-opacity="1" fill-rule="nonzero"/><g clip-path="url(#5311db9729)"><path fill="#ffffff" d="M 106.46875 124.246094 C 103.796875 126.238281 100.929688 127.980469 97.902344 129.441406 C 97.441406 129.664062 96.980469 129.878906 96.511719 130.085938 C 89.933594 133.03125 82.640625 134.671875 74.964844 134.671875 C 67.285156 134.671875 59.996094 133.03125 53.417969 130.085938 C 52.945312 129.878906 52.484375 129.664062 52.027344 129.441406 C 48.996094 127.980469 46.128906 126.238281 43.460938 124.246094 C 43.929688 113.824219 49.472656 104.71875 57.6875 99.34375 C 62.648438 96.089844 68.585938 94.203125 74.964844 94.203125 C 75.9375 94.203125 76.898438 94.246094 77.84375 94.332031 C 83.128906 94.808594 88.03125 96.585938 92.238281 99.34375 C 96.019531 101.816406 99.234375 105.082031 101.648438 108.898438 C 104.480469 113.378906 106.210938 118.625 106.46875 124.246094 " fill-opacity="1" fill-rule="nonzero"/></g><path fill="#fbd5c0" d="M 92.238281 99.34375 C 91.757812 102.976562 90.152344 106.261719 87.773438 108.832031 C 84.589844 112.273438 80.03125 114.433594 74.964844 114.433594 C 66.84375 114.433594 60.023438 108.890625 58.085938 101.386719 C 57.914062 100.71875 57.78125 100.035156 57.6875 99.34375 C 62.648438 96.089844 68.585938 94.203125 74.964844 94.203125 C 75.9375 94.203125 76.898438 94.242188 77.847656 94.332031 C 78.011719 94.347656 78.179688 94.363281 78.339844 94.382812 C 78.441406 94.390625 78.546875 94.402344 78.644531 94.414062 C 78.757812 94.425781 78.871094 94.441406 78.984375 94.457031 C 79.050781 94.464844 79.125 94.472656 79.191406 94.484375 C 79.292969 94.496094 79.394531 94.511719 79.5 94.523438 C 79.578125 94.535156 79.65625 94.550781 79.738281 94.558594 C 79.808594 94.570312 79.875 94.582031 79.945312 94.59375 C 80.0625 94.609375 80.175781 94.632812 80.292969 94.648438 C 80.792969 94.734375 81.292969 94.832031 81.785156 94.941406 L 82.113281 95.011719 C 82.175781 95.03125 82.242188 95.042969 82.304688 95.0625 C 82.421875 95.089844 82.542969 95.117188 82.65625 95.148438 C 82.675781 95.148438 82.691406 95.152344 82.707031 95.15625 C 82.855469 95.195312 83.003906 95.234375 83.148438 95.273438 C 83.304688 95.3125 83.460938 95.355469 83.609375 95.402344 C 83.785156 95.449219 83.957031 95.5 84.132812 95.550781 C 84.265625 95.59375 84.402344 95.632812 84.535156 95.679688 C 84.621094 95.707031 84.710938 95.734375 84.792969 95.761719 C 84.933594 95.804688 85.074219 95.855469 85.214844 95.902344 C 85.386719 95.960938 85.554688 96.019531 85.722656 96.082031 C 85.734375 96.085938 85.746094 96.089844 85.757812 96.09375 C 85.933594 96.15625 86.105469 96.222656 86.277344 96.285156 C 86.402344 96.339844 86.535156 96.386719 86.664062 96.441406 C 87.003906 96.574219 87.339844 96.714844 87.667969 96.859375 L 88.101562 97.054688 C 88.230469 97.113281 88.363281 97.175781 88.492188 97.238281 C 88.613281 97.296875 88.730469 97.351562 88.847656 97.410156 C 88.957031 97.460938 89.0625 97.515625 89.171875 97.570312 C 89.238281 97.605469 89.3125 97.640625 89.378906 97.675781 C 89.664062 97.820312 89.945312 97.972656 90.21875 98.125 C 90.320312 98.179688 90.421875 98.238281 90.519531 98.292969 C 90.582031 98.328125 90.644531 98.363281 90.707031 98.398438 L 90.941406 98.535156 L 91.179688 98.679688 L 91.332031 98.773438 C 91.480469 98.859375 91.625 98.945312 91.769531 99.039062 C 91.929688 99.140625 92.082031 99.238281 92.238281 99.34375 " fill-opacity="1" fill-rule="nonzero"/><path fill="#fbd5c0" d="M 81.035156 87.148438 L 81.035156 99.074219 C 81.035156 102.09375 78.5625 104.5625 75.542969 104.5625 L 74.382812 104.5625 C 71.363281 104.5625 68.894531 102.09375 68.894531 99.074219 L 68.894531 87.148438 C 68.894531 84.128906 71.363281 81.660156 74.382812 81.660156 L 75.542969 81.660156 C 78.5625 81.660156 81.035156 84.128906 81.035156 87.148438 " fill-opacity="1" fill-rule="nonzero"/><path fill="#f8a29e" d="M 81.035156 87.148438 L 81.035156 93.457031 C 79.230469 94.460938 77.316406 95.042969 75.371094 95.042969 C 73.078125 95.042969 70.890625 94.40625 68.894531 93.296875 L 68.894531 87.148438 C 68.894531 84.128906 71.363281 81.660156 74.382812 81.660156 L 75.542969 81.660156 C 78.5625 81.660156 81.035156 84.128906 81.035156 87.148438 " fill-opacity="1" fill-rule="nonzero"/><path fill="#fbd5c0" d="M 93.683594 79.75 C 93.683594 79.75 97.28125 78.53125 99.578125 74.527344 C 102.074219 70.179688 100.507812 67.472656 100.011719 66.882812 C 98.660156 65.28125 96.574219 66.3125 96.230469 66.882812 C 95.886719 67.457031 90.90625 76.488281 93.683594 79.75 " fill-opacity="1" fill-rule="nonzero"/><path fill="#f8a29e" d="M 97.210938 68.308594 C 97.210938 68.308594 99.492188 68.601562 98.691406 71.804688 C 97.886719 75.011719 95.777344 76.277344 92.910156 77.914062 C 90.046875 79.554688 94.34375 68.960938 97.210938 68.308594 " fill-opacity="1" fill-rule="nonzero"/><path fill="#fbd5c0" d="M 57.175781 79.75 C 57.175781 79.75 53.578125 78.53125 51.28125 74.527344 C 48.785156 70.179688 50.351562 67.472656 50.847656 66.882812 C 52.199219 65.28125 54.285156 66.3125 54.628906 66.882812 C 54.972656 67.457031 59.953125 76.488281 57.175781 79.75 " fill-opacity="1" fill-rule="nonzero"/><path fill="#f8a29e" d="M 53.648438 68.308594 C 53.648438 68.308594 51.367188 68.601562 52.171875 71.804688 C 52.972656 75.011719 55.082031 76.277344 57.945312 77.914062 C 60.8125 79.554688 56.515625 68.960938 53.648438 68.308594 " fill-opacity="1" fill-rule="nonzero"/><path fill="#fbd5c0" d="M 97.210938 66.195312 C 97.210938 53.035156 87.480469 42.363281 75.480469 42.363281 C 63.480469 42.363281 53.746094 53.035156 53.746094 66.195312 C 53.746094 79.355469 63.480469 93.109375 75.480469 93.109375 C 86.757812 93.109375 97.210938 79.242188 97.210938 66.195312 " fill-opacity="1" fill-rule="nonzero"/><path fill="#23255d" d="M 98.859375 58.128906 C 97.933594 49.554688 91.96875 36.101562 77.449219 37.816406 C 71.261719 36.445312 52 39.144531 52 66.027344 C 52 66.027344 55.847656 69.117188 64.574219 70.753906 C 64.972656 64.589844 66.101562 59.960938 66.101562 59.960938 C 65.214844 64.898438 67.140625 68.195312 67.222656 71.183594 C 74.5625 72.179688 84.773438 72.085938 98.304688 68.914062 C 98.304688 68.914062 99.769531 66.558594 98.859375 58.128906 " fill-opacity="1" fill-rule="nonzero"/><path fill="#23255d" d="M 58.890625 96.757812 L 52.007812 96.757812 L 52.007812 65.285156 L 58.890625 65.285156 L 58.890625 96.757812 " fill-opacity="1" fill-rule="nonzero"/><path fill="#23255d" d="M 99.160156 96.757812 L 92.273438 96.757812 L 92.273438 65.285156 L 99.160156 65.285156 L 99.160156 96.757812 " fill-opacity="1" fill-rule="nonzero"/></svg>