<svg xmlns="http://www.w3.org/2000/svg" xmlns:xlink="http://www.w3.org/1999/xlink" width="200" zoomAndPan="magnify" viewBox="0 0 150 149.999998" height="200" preserveAspectRatio="xMidYMid meet" version="1.0"><defs><clipPath id="01a15124d8"><path d="M 20.398438 15 L 129.898438 15 L 129.898438 125 L 20.398438 125 Z M 20.398438 15 " clip-rule="nonzero"/></clipPath></defs><g clip-path="url(#01a15124d8)"><path fill="#78d1cc" d="M 129.917969 69.664062 C 129.917969 99.820312 105.40625 124.261719 75.167969 124.261719 C 44.929688 124.261719 20.417969 99.820312 20.417969 69.664062 C 20.417969 39.507812 44.929688 15.066406 75.167969 15.066406 C 105.40625 15.066406 129.917969 39.507812 129.917969 69.664062 " fill-opacity="1" fill-rule="nonzero"/></g><path fill="#fac565" d="M 96.488281 41.25 C 96.488281 49.074219 90.128906 55.417969 82.28125 55.417969 C 74.4375 55.417969 68.078125 49.074219 68.078125 41.25 C 68.078125 33.425781 74.4375 27.085938 82.28125 27.085938 C 90.128906 27.085938 96.488281 33.425781 96.488281 41.25 " fill-opacity="1" fill-rule="nonzero"/><path fill="#fac565" d="M 70.589844 41.25 L 68.078125 41.25 C 68.078125 41.25 64.929688 83.511719 73.121094 96.894531 C 81.3125 110.277344 104.230469 109.960938 107.195312 94.839844 C 107.195312 94.839844 92.40625 100.882812 96.488281 41.25 L 70.589844 41.25 " fill-opacity="1" fill-rule="nonzero"/><path fill="#ffffff" d="M 107.023438 124.410156 C 104.316406 126.425781 101.40625 128.191406 98.335938 129.671875 C 97.871094 129.898438 97.402344 130.113281 96.929688 130.324219 C 90.257812 133.308594 82.863281 134.964844 75.082031 134.964844 C 67.300781 134.964844 59.90625 133.308594 53.234375 130.324219 C 52.761719 130.113281 52.292969 129.898438 51.824219 129.671875 C 48.753906 128.191406 45.847656 126.425781 43.140625 124.410156 C 43.613281 113.855469 49.242188 104.636719 57.566406 99.191406 C 62.601562 95.902344 68.617188 93.988281 75.082031 93.988281 C 76.066406 93.988281 77.042969 94.035156 78.003906 94.121094 C 83.359375 94.605469 88.332031 96.402344 92.597656 99.191406 C 96.429688 101.699219 99.691406 105.003906 102.136719 108.871094 C 105.007812 113.40625 106.765625 118.714844 107.023438 124.410156 " fill-opacity="1" fill-rule="nonzero"/><path fill="#fbd5c0" d="M 92.59375 99.191406 C 92.105469 102.875 90.480469 106.199219 88.070312 108.800781 C 84.84375 112.289062 80.21875 114.476562 75.082031 114.476562 C 66.847656 114.476562 59.933594 108.859375 57.96875 101.261719 C 57.796875 100.585938 57.660156 99.894531 57.566406 99.191406 C 62.597656 95.902344 68.613281 93.988281 75.082031 93.988281 C 76.066406 93.988281 77.042969 94.03125 78.003906 94.121094 C 78.171875 94.132812 78.339844 94.152344 78.507812 94.167969 C 78.609375 94.179688 78.710938 94.191406 78.8125 94.203125 C 78.929688 94.214844 79.042969 94.230469 79.15625 94.246094 C 79.226562 94.253906 79.296875 94.261719 79.367188 94.273438 C 79.46875 94.285156 79.574219 94.300781 79.679688 94.316406 C 79.757812 94.324219 79.839844 94.339844 79.921875 94.351562 C 79.992188 94.359375 80.0625 94.371094 80.132812 94.382812 C 80.25 94.402344 80.367188 94.421875 80.488281 94.441406 C 80.992188 94.527344 81.5 94.625 81.996094 94.734375 C 82.113281 94.761719 82.222656 94.785156 82.332031 94.808594 C 82.398438 94.828125 82.460938 94.839844 82.523438 94.859375 C 82.640625 94.886719 82.765625 94.914062 82.878906 94.945312 C 82.902344 94.949219 82.921875 94.953125 82.933594 94.953125 C 83.082031 94.992188 83.230469 95.03125 83.378906 95.074219 C 83.539062 95.109375 83.695312 95.15625 83.847656 95.203125 C 84.027344 95.25 84.203125 95.300781 84.378906 95.355469 C 84.515625 95.394531 84.648438 95.4375 84.785156 95.484375 C 84.871094 95.511719 84.964844 95.539062 85.046875 95.566406 C 85.195312 95.613281 85.335938 95.660156 85.472656 95.710938 C 85.648438 95.769531 85.816406 95.828125 85.988281 95.890625 C 86.003906 95.898438 86.011719 95.902344 86.023438 95.902344 C 86.199219 95.964844 86.375 96.03125 86.550781 96.097656 C 86.679688 96.152344 86.8125 96.199219 86.945312 96.253906 C 87.292969 96.390625 87.625 96.53125 87.960938 96.679688 L 88.402344 96.878906 C 88.535156 96.9375 88.664062 97 88.796875 97.0625 C 88.921875 97.121094 89.039062 97.175781 89.15625 97.234375 C 89.269531 97.289062 89.378906 97.34375 89.488281 97.398438 C 89.558594 97.433594 89.632812 97.46875 89.703125 97.507812 C 89.988281 97.652344 90.273438 97.804688 90.546875 97.957031 C 90.652344 98.015625 90.753906 98.074219 90.851562 98.128906 C 90.921875 98.167969 90.980469 98.203125 91.042969 98.238281 L 91.28125 98.375 C 91.359375 98.425781 91.445312 98.472656 91.523438 98.523438 C 91.574219 98.554688 91.625 98.585938 91.679688 98.617188 C 91.828125 98.703125 91.972656 98.792969 92.121094 98.886719 C 92.28125 98.988281 92.4375 99.089844 92.59375 99.191406 " fill-opacity="1" fill-rule="nonzero"/><path fill="#fbd5c0" d="M 81.242188 86.84375 L 81.242188 98.921875 C 81.242188 101.976562 78.734375 104.480469 75.667969 104.480469 L 74.496094 104.480469 C 71.429688 104.480469 68.925781 101.976562 68.925781 98.921875 L 68.925781 86.84375 C 68.925781 83.789062 71.429688 81.289062 74.496094 81.289062 L 75.667969 81.289062 C 78.734375 81.289062 81.242188 83.789062 81.242188 86.84375 " fill-opacity="1" fill-rule="nonzero"/><path fill="#f8a29e" d="M 81.242188 86.84375 L 81.242188 93.234375 C 79.410156 94.25 77.46875 94.839844 75.496094 94.839844 C 73.171875 94.839844 70.957031 94.195312 68.925781 93.070312 L 68.925781 86.84375 C 68.925781 83.789062 71.429688 81.289062 74.496094 81.289062 L 75.667969 81.289062 C 78.734375 81.289062 81.242188 83.789062 81.242188 86.84375 " fill-opacity="1" fill-rule="nonzero"/><path fill="#fbd5c0" d="M 94.0625 79.355469 C 94.0625 79.355469 97.707031 78.117188 100.042969 74.066406 C 102.570312 69.664062 100.980469 66.921875 100.480469 66.328125 C 99.109375 64.703125 96.996094 65.746094 96.644531 66.328125 C 96.296875 66.90625 91.25 76.050781 94.0625 79.355469 " fill-opacity="1" fill-rule="nonzero"/><path fill="#f8a29e" d="M 97.640625 67.769531 C 97.640625 67.769531 99.949219 68.066406 99.136719 71.308594 C 98.324219 74.554688 96.183594 75.835938 93.28125 77.496094 C 90.378906 79.15625 94.734375 68.429688 97.640625 67.769531 " fill-opacity="1" fill-rule="nonzero"/><path fill="#fbd5c0" d="M 57.046875 79.355469 C 57.046875 79.355469 53.398438 78.117188 51.070312 74.066406 C 48.539062 69.664062 50.128906 66.921875 50.632812 66.328125 C 52 64.703125 54.117188 65.746094 54.464844 66.328125 C 54.816406 66.90625 59.863281 76.050781 57.046875 79.355469 " fill-opacity="1" fill-rule="nonzero"/><path fill="#f8a29e" d="M 53.472656 67.769531 C 53.472656 67.769531 51.160156 68.066406 51.972656 71.308594 C 52.785156 74.554688 54.925781 75.835938 57.832031 77.496094 C 60.734375 79.15625 56.378906 68.429688 53.472656 67.769531 " fill-opacity="1" fill-rule="nonzero"/><path fill="#fbd5c0" d="M 97.640625 65.628906 C 97.640625 52.300781 87.773438 41.496094 75.605469 41.496094 C 63.4375 41.496094 53.570312 52.300781 53.570312 65.628906 C 53.570312 78.953125 63.4375 92.882812 75.605469 92.882812 C 87.042969 92.882812 97.640625 78.839844 97.640625 65.628906 " fill-opacity="1" fill-rule="nonzero"/><path fill="#fac565" d="M 77.585938 55.898438 C 77.585938 55.898438 81.734375 69.195312 97.324219 67.875 C 97.324219 67.875 100.042969 63.953125 99.125 55.417969 C 98.085938 45.796875 89.542969 37.703125 75.605469 40.601562 C 75.605469 40.601562 74.335938 47.4375 77.585938 55.898438 " fill-opacity="1" fill-rule="nonzero"/><path fill="#fac565" d="M 78.285156 41.496094 C 78.285156 41.496094 78.867188 38.980469 76.773438 37.007812 C 74.683594 35.039062 46.984375 39.085938 53.570312 65.628906 C 53.570312 65.628906 60.023438 49.753906 77.125 48.363281 L 78.285156 41.496094 " fill-opacity="1" fill-rule="nonzero"/></svg>