<svg xmlns="http://www.w3.org/2000/svg" xmlns:xlink="http://www.w3.org/1999/xlink" width="200" zoomAndPan="magnify" viewBox="0 0 150 149.999998" height="200" preserveAspectRatio="xMidYMid meet" version="1.0"><defs><clipPath id="2d711e21fd"><path d="M 20.398438 15 L 129.898438 15 L 129.898438 125 L 20.398438 125 Z M 20.398438 15 " clip-rule="nonzero"/></clipPath></defs><g clip-path="url(#2d711e21fd)"><path fill="#f2546b" d="M 20.417969 69.664062 C 20.417969 99.820312 44.929688 124.261719 75.167969 124.261719 C 105.40625 124.261719 129.917969 99.820312 129.917969 69.664062 C 129.917969 39.507812 105.40625 15.066406 75.167969 15.066406 C 44.925781 15.066406 20.417969 39.507812 20.417969 69.664062 " fill-opacity="1" fill-rule="nonzero"/></g><path fill="#845232" d="M 94.816406 110.941406 L 56.566406 110.941406 L 56.566406 55.417969 L 94.816406 55.417969 L 94.816406 110.941406 " fill-opacity="1" fill-rule="nonzero"/><path fill="#ffffff" d="M 107.109375 124.410156 C 104.402344 126.425781 101.496094 128.191406 98.421875 129.671875 C 97.957031 129.898438 97.488281 130.113281 97.015625 130.324219 C 90.347656 133.308594 82.953125 134.964844 75.167969 134.964844 C 67.382812 134.964844 59.992188 133.308594 53.324219 130.324219 C 52.84375 130.113281 52.375 129.898438 51.910156 129.671875 C 48.839844 128.191406 45.933594 126.425781 43.226562 124.410156 C 43.703125 113.855469 49.324219 104.636719 57.652344 99.191406 C 62.683594 95.902344 68.699219 93.988281 75.167969 93.988281 C 76.152344 93.988281 77.128906 94.035156 78.089844 94.121094 C 83.445312 94.605469 88.417969 96.402344 92.683594 99.191406 C 96.515625 101.699219 99.777344 105.003906 102.222656 108.871094 C 105.097656 113.40625 106.847656 118.714844 107.109375 124.410156 " fill-opacity="1" fill-rule="nonzero"/><path fill="#fbd5c0" d="M 92.683594 99.191406 C 92.195312 102.875 90.566406 106.199219 88.15625 108.800781 C 84.929688 112.289062 80.304688 114.476562 75.167969 114.476562 C 66.9375 114.476562 60.019531 108.859375 58.058594 101.261719 C 57.882812 100.585938 57.746094 99.894531 57.652344 99.191406 C 62.683594 95.902344 68.699219 93.988281 75.167969 93.988281 C 76.152344 93.988281 77.128906 94.03125 78.09375 94.121094 C 78.257812 94.132812 78.425781 94.152344 78.589844 94.167969 C 78.695312 94.179688 78.800781 94.191406 78.902344 94.203125 C 79.015625 94.214844 79.132812 94.230469 79.242188 94.246094 C 79.3125 94.253906 79.386719 94.261719 79.457031 94.273438 C 79.554688 94.285156 79.660156 94.300781 79.765625 94.316406 C 79.847656 94.324219 79.925781 94.339844 80.007812 94.351562 C 80.078125 94.359375 80.148438 94.371094 80.21875 94.382812 C 80.335938 94.402344 80.453125 94.421875 80.570312 94.441406 C 81.078125 94.527344 81.585938 94.625 82.082031 94.734375 L 82.417969 94.808594 C 82.480469 94.828125 82.546875 94.839844 82.609375 94.859375 C 82.730469 94.886719 82.851562 94.914062 82.964844 94.945312 C 82.988281 94.949219 83.003906 94.953125 83.019531 94.953125 C 83.167969 94.992188 83.316406 95.03125 83.464844 95.074219 C 83.625 95.109375 83.78125 95.15625 83.933594 95.203125 C 84.113281 95.25 84.289062 95.300781 84.464844 95.355469 C 84.601562 95.394531 84.738281 95.4375 84.871094 95.484375 C 84.960938 95.511719 85.050781 95.539062 85.132812 95.566406 C 85.277344 95.613281 85.421875 95.660156 85.558594 95.710938 C 85.734375 95.769531 85.90625 95.828125 86.074219 95.890625 C 86.089844 95.898438 86.101562 95.902344 86.109375 95.902344 C 86.289062 95.964844 86.460938 96.03125 86.636719 96.097656 C 86.765625 96.152344 86.898438 96.199219 87.03125 96.253906 C 87.375 96.390625 87.714844 96.53125 88.046875 96.679688 L 88.488281 96.878906 C 88.621094 96.9375 88.753906 97 88.886719 97.0625 C 89.007812 97.121094 89.125 97.175781 89.246094 97.234375 C 89.355469 97.289062 89.464844 97.34375 89.570312 97.398438 C 89.640625 97.433594 89.714844 97.46875 89.785156 97.507812 C 90.074219 97.652344 90.355469 97.804688 90.636719 97.957031 C 90.738281 98.015625 90.839844 98.074219 90.9375 98.128906 C 91.003906 98.167969 91.066406 98.203125 91.128906 98.238281 L 91.367188 98.375 L 91.609375 98.523438 L 91.765625 98.617188 C 91.914062 98.703125 92.0625 98.792969 92.207031 98.886719 C 92.367188 98.988281 92.523438 99.089844 92.683594 99.191406 " fill-opacity="1" fill-rule="nonzero"/><path fill="#fbd5c0" d="M 81.324219 86.84375 L 81.324219 98.921875 C 81.324219 101.976562 78.816406 104.480469 75.757812 104.480469 L 74.578125 104.480469 C 71.515625 104.480469 69.015625 101.976562 69.015625 98.921875 L 69.015625 86.84375 C 69.015625 83.789062 71.515625 81.289062 74.578125 81.289062 L 75.757812 81.289062 C 78.816406 81.289062 81.324219 83.789062 81.324219 86.84375 " fill-opacity="1" fill-rule="nonzero"/><path fill="#f8a29e" d="M 81.324219 86.84375 L 81.324219 93.234375 C 79.492188 94.25 77.550781 94.839844 75.582031 94.839844 C 73.257812 94.839844 71.039062 94.195312 69.015625 93.070312 L 69.015625 86.84375 C 69.015625 83.789062 71.515625 81.289062 74.578125 81.289062 L 75.757812 81.289062 C 78.816406 81.289062 81.324219 83.789062 81.324219 86.84375 " fill-opacity="1" fill-rule="nonzero"/><path fill="#fbd5c0" d="M 94.148438 79.355469 C 94.148438 79.355469 97.796875 78.117188 100.125 74.066406 C 102.65625 69.664062 101.066406 66.921875 100.5625 66.328125 C 99.195312 64.703125 97.078125 65.746094 96.730469 66.328125 C 96.378906 66.90625 91.332031 76.050781 94.148438 79.355469 " fill-opacity="1" fill-rule="nonzero"/><path fill="#f8a29e" d="M 97.722656 67.769531 C 97.722656 67.769531 100.039062 68.066406 99.226562 71.308594 C 98.410156 74.554688 96.273438 75.835938 93.363281 77.496094 C 90.460938 79.15625 94.820312 68.429688 97.722656 67.769531 " fill-opacity="1" fill-rule="nonzero"/><path fill="#fbd5c0" d="M 57.132812 79.355469 C 57.132812 79.355469 53.488281 78.117188 51.160156 74.066406 C 48.625 69.664062 50.214844 66.921875 50.714844 66.328125 C 52.085938 64.703125 54.203125 65.746094 54.550781 66.328125 C 54.898438 66.90625 59.949219 76.050781 57.132812 79.355469 " fill-opacity="1" fill-rule="nonzero"/><path fill="#f8a29e" d="M 53.558594 67.769531 C 53.558594 67.769531 51.246094 68.066406 52.058594 71.308594 C 52.871094 74.554688 55.011719 75.835938 57.914062 77.496094 C 60.820312 79.15625 56.464844 68.429688 53.558594 67.769531 " fill-opacity="1" fill-rule="nonzero"/><path fill="#fbd5c0" d="M 97.722656 65.628906 C 97.722656 52.300781 87.859375 41.496094 75.691406 41.496094 C 63.523438 41.496094 53.65625 52.300781 53.65625 65.628906 C 53.65625 78.953125 63.523438 92.882812 75.691406 92.882812 C 87.125 92.882812 97.722656 78.839844 97.722656 65.628906 " fill-opacity="1" fill-rule="nonzero"/><path fill="#845232" d="M 65.546875 49.929688 C 65.546875 49.929688 72.75 71.484375 99.394531 83.695312 C 99.394531 83.695312 100.132812 63.953125 99.210938 55.417969 C 98.171875 45.796875 89.105469 34.695312 75.171875 37.589844 C 75.171875 37.589844 62.289062 41.472656 65.546875 49.929688 " fill-opacity="1" fill-rule="nonzero"/><path fill="#845232" d="M 78.371094 41.496094 C 78.371094 41.496094 78.949219 38.980469 76.859375 37.007812 C 74.765625 35.039062 47.074219 39.085938 53.65625 65.628906 C 53.65625 65.628906 60.109375 49.753906 77.207031 48.363281 L 78.371094 41.496094 " fill-opacity="1" fill-rule="nonzero"/></svg>