<svg xmlns="http://www.w3.org/2000/svg" xmlns:xlink="http://www.w3.org/1999/xlink" width="200" zoomAndPan="magnify" viewBox="0 0 150 149.999998" height="200" preserveAspectRatio="xMidYMid meet" version="1.0"><defs><clipPath id="188bc3d954"><path d="M 20.398438 15 L 129.898438 15 L 129.898438 125 L 20.398438 125 Z M 20.398438 15 " clip-rule="nonzero"/></clipPath></defs><g clip-path="url(#188bc3d954)"><path fill="#78d1cc" d="M 129.917969 69.664062 C 129.917969 99.820312 105.40625 124.261719 75.167969 124.261719 C 44.929688 124.261719 20.417969 99.820312 20.417969 69.664062 C 20.417969 39.507812 44.929688 15.066406 75.167969 15.066406 C 105.40625 15.066406 129.917969 39.507812 129.917969 69.664062 " fill-opacity="1" fill-rule="nonzero"/></g><path fill="#ed451d" d="M 75.488281 116.503906 C 72.152344 116.503906 68.847656 115.882812 65.71875 114.734375 C 63.296875 113.847656 60.980469 111.921875 58.339844 112.066406 C 53.488281 112.332031 47.207031 112.75 45.464844 106.769531 C 43.734375 100.839844 50.242188 97.015625 50.738281 91.484375 C 51.203125 86.371094 43.277344 85.066406 45.367188 79.480469 C 45.824219 78.261719 46.855469 77.164062 47.03125 75.832031 C 47.230469 74.351562 46.59375 73.074219 46.363281 71.660156 C 45.605469 66.941406 49.386719 60.375 53.199219 57.773438 C 58.28125 54.304688 64.566406 53.496094 70.476562 52.363281 C 78.226562 50.875 86.652344 48.644531 93.960938 51.84375 C 98.054688 53.636719 103.164062 55.367188 104.484375 59.972656 C 105.882812 64.847656 107.722656 69.808594 104.898438 74.574219 C 103.308594 77.261719 100.546875 78.40625 101.59375 81.777344 C 102.367188 84.277344 104.996094 85.753906 105.632812 88.347656 C 107.078125 94.21875 98.390625 95.648438 100.796875 101.171875 C 102.039062 104.019531 103.800781 105.671875 102.679688 109.042969 C 101.867188 111.488281 99.773438 112.695312 97.273438 112.855469 C 95.335938 112.976562 93.496094 112.300781 91.535156 112.636719 C 90.175781 112.867188 89.085938 113.5 87.820312 114.011719 C 83.964844 115.582031 79.652344 116.503906 75.488281 116.503906 " fill-opacity="1" fill-rule="nonzero"/><path fill="#ffffff" d="M 107.109375 124.410156 C 104.402344 126.425781 101.496094 128.191406 98.421875 129.671875 C 97.957031 129.898438 97.488281 130.113281 97.015625 130.324219 C 90.347656 133.308594 82.953125 134.964844 75.167969 134.964844 C 67.382812 134.964844 59.992188 133.308594 53.324219 130.324219 C 52.84375 130.113281 52.375 129.898438 51.910156 129.671875 C 48.839844 128.191406 45.933594 126.425781 43.226562 124.410156 C 43.703125 113.855469 49.324219 104.636719 57.652344 99.191406 C 62.683594 95.902344 68.699219 93.988281 75.167969 93.988281 C 76.152344 93.988281 77.128906 94.035156 78.089844 94.121094 C 83.445312 94.605469 88.417969 96.402344 92.683594 99.191406 C 96.515625 101.699219 99.777344 105.003906 102.222656 108.871094 C 105.097656 113.40625 106.847656 118.714844 107.109375 124.410156 " fill-opacity="1" fill-rule="nonzero"/><path fill="#fbd5c0" d="M 92.683594 99.191406 C 92.195312 102.875 90.566406 106.199219 88.15625 108.800781 C 84.929688 112.289062 80.304688 114.476562 75.167969 114.476562 C 66.9375 114.476562 60.019531 108.859375 58.058594 101.261719 C 57.882812 100.585938 57.746094 99.894531 57.652344 99.191406 C 62.683594 95.902344 68.699219 93.988281 75.167969 93.988281 C 76.152344 93.988281 77.128906 94.03125 78.09375 94.121094 C 78.257812 94.132812 78.425781 94.152344 78.589844 94.167969 C 78.695312 94.179688 78.800781 94.191406 78.902344 94.203125 C 79.015625 94.214844 79.132812 94.230469 79.242188 94.246094 C 79.3125 94.253906 79.386719 94.261719 79.457031 94.273438 C 79.554688 94.285156 79.660156 94.300781 79.765625 94.316406 C 79.847656 94.324219 79.925781 94.339844 80.007812 94.351562 C 80.078125 94.359375 80.148438 94.371094 80.21875 94.382812 C 80.335938 94.402344 80.453125 94.421875 80.570312 94.441406 C 81.078125 94.527344 81.585938 94.625 82.082031 94.734375 L 82.417969 94.808594 C 82.480469 94.828125 82.546875 94.839844 82.609375 94.859375 C 82.730469 94.886719 82.851562 94.914062 82.964844 94.945312 C 82.988281 94.949219 83.003906 94.953125 83.019531 94.953125 C 83.167969 94.992188 83.316406 95.03125 83.464844 95.074219 C 83.625 95.109375 83.78125 95.15625 83.933594 95.203125 C 84.113281 95.25 84.289062 95.300781 84.464844 95.355469 C 84.601562 95.394531 84.738281 95.4375 84.871094 95.484375 C 84.960938 95.511719 85.050781 95.539062 85.132812 95.566406 C 85.277344 95.613281 85.421875 95.660156 85.558594 95.710938 C 85.734375 95.769531 85.90625 95.828125 86.074219 95.890625 C 86.089844 95.898438 86.101562 95.902344 86.109375 95.902344 C 86.289062 95.964844 86.460938 96.03125 86.636719 96.097656 C 86.765625 96.152344 86.898438 96.199219 87.03125 96.253906 C 87.375 96.390625 87.714844 96.53125 88.046875 96.679688 L 88.488281 96.878906 C 88.621094 96.9375 88.753906 97 88.886719 97.0625 C 89.007812 97.121094 89.125 97.175781 89.246094 97.234375 C 89.355469 97.289062 89.464844 97.34375 89.570312 97.398438 C 89.640625 97.433594 89.714844 97.46875 89.785156 97.507812 C 90.074219 97.652344 90.355469 97.804688 90.636719 97.957031 C 90.738281 98.015625 90.839844 98.074219 90.9375 98.128906 C 91.003906 98.167969 91.066406 98.203125 91.128906 98.238281 L 91.367188 98.375 L 91.609375 98.523438 L 91.765625 98.617188 C 91.914062 98.703125 92.0625 98.792969 92.207031 98.886719 C 92.367188 98.988281 92.523438 99.089844 92.683594 99.191406 " fill-opacity="1" fill-rule="nonzero"/><path fill="#fbd5c0" d="M 81.324219 86.84375 L 81.324219 98.921875 C 81.324219 101.976562 78.816406 104.480469 75.757812 104.480469 L 74.578125 104.480469 C 71.515625 104.480469 69.015625 101.976562 69.015625 98.921875 L 69.015625 86.84375 C 69.015625 83.789062 71.515625 81.289062 74.578125 81.289062 L 75.757812 81.289062 C 78.816406 81.289062 81.324219 83.789062 81.324219 86.84375 " fill-opacity="1" fill-rule="nonzero"/><path fill="#f8a29e" d="M 81.324219 86.84375 L 81.324219 93.234375 C 79.492188 94.25 77.550781 94.839844 75.582031 94.839844 C 73.257812 94.839844 71.039062 94.195312 69.015625 93.070312 L 69.015625 86.84375 C 69.015625 83.789062 71.515625 81.289062 74.578125 81.289062 L 75.757812 81.289062 C 78.816406 81.289062 81.324219 83.789062 81.324219 86.84375 " fill-opacity="1" fill-rule="nonzero"/><path fill="#fbd5c0" d="M 94.148438 79.355469 C 94.148438 79.355469 97.796875 78.117188 100.125 74.066406 C 102.65625 69.664062 101.066406 66.921875 100.5625 66.328125 C 99.195312 64.703125 97.078125 65.746094 96.730469 66.328125 C 96.378906 66.90625 91.332031 76.050781 94.148438 79.355469 " fill-opacity="1" fill-rule="nonzero"/><path fill="#f8a29e" d="M 97.722656 67.769531 C 97.722656 67.769531 100.039062 68.066406 99.226562 71.308594 C 98.410156 74.554688 96.273438 75.835938 93.363281 77.496094 C 90.460938 79.15625 94.820312 68.429688 97.722656 67.769531 " fill-opacity="1" fill-rule="nonzero"/><path fill="#fbd5c0" d="M 57.132812 79.355469 C 57.132812 79.355469 53.488281 78.117188 51.160156 74.066406 C 48.625 69.664062 50.214844 66.921875 50.714844 66.328125 C 52.085938 64.703125 54.203125 65.746094 54.550781 66.328125 C 54.898438 66.90625 59.949219 76.050781 57.132812 79.355469 " fill-opacity="1" fill-rule="nonzero"/><path fill="#f8a29e" d="M 53.558594 67.769531 C 53.558594 67.769531 51.246094 68.066406 52.058594 71.308594 C 52.871094 74.554688 55.011719 75.835938 57.914062 77.496094 C 60.820312 79.15625 56.464844 68.429688 53.558594 67.769531 " fill-opacity="1" fill-rule="nonzero"/><path fill="#fbd5c0" d="M 97.722656 65.628906 C 97.722656 52.300781 87.859375 41.496094 75.691406 41.496094 C 63.523438 41.496094 53.65625 52.300781 53.65625 65.628906 C 53.65625 78.953125 63.523438 92.882812 75.691406 92.882812 C 87.125 92.882812 97.722656 78.839844 97.722656 65.628906 " fill-opacity="1" fill-rule="nonzero"/><path fill="#ed451d" d="M 103.414062 61.09375 C 104.4375 58.679688 103.742188 55.742188 103.238281 53.371094 C 102.167969 48.335938 98.863281 43.554688 93.433594 42.460938 C 90.84375 41.9375 88.261719 41.40625 85.945312 39.804688 C 83.835938 38.339844 81.828125 36.375 79.453125 35.371094 C 74.800781 33.414062 68.726562 34.765625 67.503906 40.234375 C 67.453125 40.464844 67.402344 40.707031 67.363281 40.960938 L 67.292969 40.195312 C 66.902344 43.199219 66.914062 45.261719 68.726562 47.835938 C 70.597656 50.480469 73.070312 50.992188 76.007812 51.3125 C 82.285156 51.996094 83.660156 56.027344 85.285156 61.230469 C 86.324219 64.558594 88.859375 68.257812 92.742188 67.496094 C 94.5625 67.140625 96.15625 66.085938 97.929688 65.707031 C 99.882812 65.285156 100.558594 66.515625 101.945312 67.644531 C 101.933594 66.507812 101.359375 65.09375 101.664062 64.050781 C 101.96875 63.011719 102.988281 62.097656 103.414062 61.09375 " fill-opacity="1" fill-rule="nonzero"/><path fill="#ed451d" d="M 70.085938 44.359375 C 69.707031 43.285156 68.957031 42.113281 68.171875 41.242188 C 67.144531 40.117188 67.503906 40.234375 66.246094 39.847656 C 63.996094 39.007812 62.328125 38.515625 59.96875 39.890625 C 58.011719 41.035156 56.976562 42.921875 56.445312 45.027344 C 55.761719 47.734375 55.089844 49.046875 52.824219 50.972656 C 51.027344 52.5 49.785156 54.351562 48.941406 56.535156 C 47.960938 59.074219 47.316406 62.09375 47.421875 64.878906 C 47.492188 66.738281 47.960938 70.777344 49.304688 71.988281 C 49.617188 69.015625 50.5 67.371094 53.480469 66.578125 C 56.023438 65.910156 58.207031 65.566406 58.929688 62.625 C 59.582031 59.976562 59.746094 57.765625 62.238281 55.882812 C 64.292969 54.328125 67.164062 53.785156 68.898438 51.855469 C 70.703125 49.835938 70.957031 46.832031 70.085938 44.359375 " fill-opacity="1" fill-rule="nonzero"/></svg>